<?xml version="1.0" encoding="UTF-8"?>
<svg id="Vrstva_1" xmlns="http://www.w3.org/2000/svg" version="1.1" viewBox="0 0 375.1 342.01">
  <!-- Generator: Adobe Illustrator 29.5.1, SVG Export Plug-In . SVG Version: 2.1.0 Build 141)  -->
  <defs>
    <style>
      .st0 {
        fill: none;
        stroke: #000;
        stroke-miterlimit: 2.61;
        stroke-width: 2px;
      }
    </style>
  </defs>
  <polygon class="st0" points="110.44 137.45 110.44 109.8 134.42 95.91 158.39 109.8 158.39 137.45 134.42 151.35 110.44 137.45 110.44 137.45"/>
  <polygon class="st0" points="83.01 184.9 83.01 157.18 107.06 143.35 131.03 157.18 131.03 184.9 107.06 198.72 83.01 184.9 83.01 184.9"/>
  <polygon class="st0" points="55.72 232.2 55.72 204.55 79.7 190.66 103.74 204.55 103.74 232.2 79.77 246.1 55.72 232.2 55.72 232.2"/>
  <polygon class="st0" points="28.36 279.58 28.36 251.86 52.41 238.03 76.38 251.86 76.38 279.58 52.41 293.4 28.36 279.58 28.36 279.58"/>
  <polygon class="st0" points="1 326.95 1 299.31 24.98 285.41 48.95 299.31 48.95 326.95 24.98 340.85 1 326.95 1 326.95"/>
  <polygon class="st0" points="192.02 89.86 192.02 62.14 215.99 48.31 239.97 62.14 239.97 89.86 215.99 103.68 192.02 89.86 192.02 89.86"/>
  <polygon class="st0" points="164.66 137.16 164.66 109.51 188.63 95.62 212.61 109.51 212.61 137.16 188.63 151.06 164.66 137.16 164.66 137.16"/>
  <polygon class="st0" points="137.22 184.61 137.22 156.89 161.2 143.07 185.25 156.89 185.25 184.61 161.2 198.43 137.22 184.61 137.22 184.61"/>
  <polygon class="st0" points="109.94 231.91 109.94 204.19 133.91 190.37 157.89 204.27 157.96 231.91 133.91 245.81 109.94 231.91 109.94 231.91"/>
  <polygon class="st0" points="82.58 279.29 82.58 251.57 106.55 237.75 130.6 251.57 130.6 279.29 106.55 293.11 82.58 279.29 82.58 279.29"/>
  <polygon class="st0" points="55.22 326.74 55.22 299.02 79.19 285.19 103.17 299.02 103.17 326.74 79.19 340.56 55.22 326.74 55.22 326.74"/>
  <polygon class="st0" points="218.8 136.88 218.8 109.15 242.78 95.33 266.75 109.15 266.75 136.88 242.78 150.7 218.8 136.88 218.8 136.88"/>
  <polygon class="st0" points="191.44 184.25 191.44 156.53 215.42 142.71 239.39 156.53 239.39 184.25 215.42 198.07 191.44 184.25 191.44 184.25"/>
  <polygon class="st0" points="164.01 231.7 164.01 203.98 188.06 190.15 212.03 203.98 212.03 231.7 188.06 245.52 164.01 231.7 164.01 231.7"/>
  <polygon class="st0" points="136.72 279 136.72 251.28 160.7 237.46 184.74 251.28 184.74 279 160.77 292.83 136.72 279 136.72 279"/>
  <polygon class="st0" points="109.36 326.38 109.36 298.66 133.41 284.83 157.38 298.66 157.38 326.38 133.41 340.2 109.36 326.38 109.36 326.38"/>
  <polygon class="st0" points="245.58 184.03 245.58 156.31 269.56 142.49 293.54 156.31 293.61 184.03 269.56 197.86 245.58 184.03 245.58 184.03"/>
  <polygon class="st0" points="218.23 231.41 218.23 203.76 242.2 189.87 266.25 203.76 266.25 231.41 242.2 245.31 218.23 231.41 218.23 231.41"/>
  <polygon class="st0" points="190.86 278.86 190.86 251.14 214.84 237.31 238.82 251.14 238.82 278.86 214.84 292.68 190.86 278.86 190.86 278.86"/>
  <polygon class="st0" points="163.58 326.16 163.5 298.51 187.55 284.62 211.53 298.51 211.53 326.16 187.55 340.06 163.58 326.16 163.58 326.16"/>
  <polygon class="st0" points="272.44 231.05 272.44 203.33 296.42 189.51 320.39 203.33 320.39 231.05 296.42 244.87 272.44 231.05 272.44 231.05"/>
  <polygon class="st0" points="245.08 278.35 245.08 250.71 269.06 236.81 293.1 250.71 293.1 278.35 269.06 292.25 245.08 278.35 245.08 278.35"/>
  <polygon class="st0" points="217.72 325.8 217.72 298.08 241.7 284.26 265.74 298.08 265.74 325.8 241.77 339.63 217.72 325.8 217.72 325.8"/>
  <polygon class="st0" points="299.23 278.21 299.23 250.56 323.2 236.67 347.25 250.56 347.25 278.21 323.2 292.11 299.23 278.21 299.23 278.21"/>
  <polygon class="st0" points="271.86 325.59 271.86 297.87 295.84 284.04 319.89 297.87 319.89 325.59 295.91 339.41 271.86 325.59 271.86 325.59"/>
  <polygon class="st0" points="326.15 325.15 326.15 297.51 350.13 283.61 374.1 297.51 374.1 325.15 350.13 339.05 326.15 325.15 326.15 325.15"/>
  <polygon class="st0" points="165.16 42.7 165.16 14.98 189.14 1.15 213.11 14.98 213.11 42.7 189.14 56.52 165.16 42.7 165.16 42.7"/>
  <polygon class="st0" points="137.8 90.07 137.8 62.35 161.78 48.53 185.75 62.35 185.75 90.07 161.78 103.9 137.8 90.07 137.8 90.07"/>
</svg>