<?xml version="1.0" encoding="UTF-8"?>
<svg id="Vrstva_1" xmlns="http://www.w3.org/2000/svg" version="1.1" viewBox="0 0 1920.1 1080.08">
  <!-- Generator: Adobe Illustrator 29.5.1, SVG Export Plug-In . SVG Version: 2.1.0 Build 141)  -->
  <defs>
    <style>
      .st0 {
        fill: none;
        stroke: #000;
        stroke-miterlimit: 2.61;
        stroke-width: 2px;
      }
    </style>
  </defs>
  <polygon id="_x31_" class="st0" points="895.98 182.63 895.98 102.79 965.04 62.96 1034.08 102.79 1034.08 182.63 965.04 222.43 895.98 182.63 895.98 182.63"/>
  <polygon id="_x32_" class="st0" points="817.18 319.05 817.18 239.22 886.25 199.42 955.28 239.22 955.28 319.05 886.25 358.88 817.18 319.05 817.18 319.05"/>
  <polygon id="_x33_" class="st0" points="973.34 318.45 973.34 238.61 1042.37 198.78 1111.43 238.61 1111.43 318.45 1042.37 358.25 973.34 318.45 973.34 318.45"/>
  <polygon id="_x34_" class="st0" points="738.39 455.51 738.39 375.88 807.45 335.87 876.48 375.88 876.48 455.51 807.45 495.54 738.39 455.51 738.39 455.51"/>
  <polygon id="_x35_" class="st0" points="894.54 454.67 894.54 375.04 963.58 335.04 1032.64 375.04 1032.64 454.67 963.58 494.7 894.54 454.67 894.54 454.67"/>
  <polygon id="_x36_" class="st0" points="1050.46 453.87 1050.46 374 1119.53 334.2 1188.56 374 1188.56 453.87 1119.53 493.67 1050.46 453.87 1050.46 453.87"/>
  <polygon id="_x37_" class="st0" points="659.39 592.16 659.39 512.33 728.65 472.5 797.69 512.33 797.69 592.16 728.65 631.97 659.39 592.16 659.39 592.16"/>
  <polygon id="_x38_" class="st0" points="815.51 591.33 815.51 511.49 884.58 471.69 953.84 511.49 953.84 591.33 884.58 631.13 815.51 591.33 815.51 591.33"/>
  <polygon id="_x39_" class="st0" points="971.67 590.29 971.67 510.46 1040.73 470.66 1109.76 510.46 1109.76 590.29 1040.73 630.09 971.67 590.29 971.67 590.29"/>
  <polygon id="_x31_0" class="st0" points="1127.59 589.66 1127.59 509.82 1196.65 470.02 1265.72 509.82 1265.92 589.66 1196.65 629.49 1127.59 589.66 1127.59 589.66"/>
  <polygon id="_x31_1" class="st0" points="580.79 728.39 580.79 648.76 649.86 608.75 719.09 648.76 719.09 728.39 650.06 768.42 580.79 728.39 580.79 728.39"/>
  <polygon id="_x31_2" class="st0" points="736.95 727.55 736.95 647.72 805.98 607.92 875.04 647.95 875.25 727.55 805.98 767.58 736.95 727.55 736.95 727.55"/>
  <polygon id="_x31_3" class="st0" points="892.67 726.95 892.67 647.11 961.93 607.28 1030.97 647.11 1030.97 726.95 961.93 766.75 892.67 726.95 892.67 726.95"/>
  <polygon id="_x31_4" class="st0" points="1048.82 726.11 1048.82 646.48 1117.86 606.48 1187.12 646.48 1187.12 726.11 1117.86 766.14 1048.82 726.11 1048.82 726.11"/>
  <polygon id="_x31_5" class="st0" points="1204.95 725.08 1204.95 645.24 1274.01 605.44 1343.04 645.24 1343.04 725.08 1274.01 764.88 1204.95 725.08 1204.95 725.08"/>
  <polygon id="_x31_6" class="st0" points="502 864.84 502 785.01 571.26 745.18 640.3 785.01 640.3 864.84 571.26 904.64 502 864.84 502 864.84"/>
  <polygon id="_x31_7" class="st0" points="658.15 864.01 658.15 784.17 727.18 744.37 796.45 784.17 796.45 864.01 727.18 903.81 658.15 864.01 658.15 864.01"/>
  <polygon id="_x31_8" class="st0" points="814.07 863.17 814.07 783.34 883.14 743.54 952.37 783.34 952.37 863.17 883.34 903 814.07 863.17 814.07 863.17"/>
  <polygon id="_x31_9" class="st0" points="970 862.77 970 782.93 1039.06 743.1 1108.12 782.93 1108.12 862.77 1039.06 902.57 970 862.77 970 862.77"/>
  <polygon id="_x32_0" class="st0" points="1126.15 861.3 1126.15 781.7 1195.21 741.66 1264.45 781.7 1264.45 861.3 1195.21 901.33 1126.15 861.3 1126.15 861.3"/>
  <polygon id="_x32_1" class="st0" points="1282.1 860.9 1282.1 781.26 1351.14 741.26 1420.4 781.26 1420.4 860.9 1351.14 900.93 1282.1 860.9 1282.1 860.9"/>
  <polygon id="_x32_2" class="st0" points="423.2 1001.27 423.2 921.66 492.26 881.63 561.3 921.66 561.3 1001.27 492.26 1041.3 423.2 1001.27 423.2 1001.27"/>
  <polygon id="_x32_21" class="st0" points="579.35 1000.66 579.35 920.83 648.39 881 717.45 920.83 717.45 1000.66 648.39 1040.46 579.35 1000.66 579.35 1000.66"/>
  <polygon id="_x32_3" class="st0" points="735.28 999.63 735.28 919.79 804.54 879.96 873.58 919.79 873.58 999.63 804.54 1039.43 735.28 999.63 735.28 999.63"/>
  <polygon id="_x32_4" class="st0" points="891.43 998.99 891.2 919.36 960.46 879.36 1029.53 919.36 1029.53 998.99 960.46 1039.02 891.43 998.99 891.43 998.99"/>
  <polygon id="_x32_5" class="st0" points="1047.35 997.96 1047.35 918.12 1116.42 878.32 1185.65 918.12 1185.65 997.96 1116.62 1037.79 1047.35 997.96 1047.35 997.96"/>
  <polygon id="_x32_6" class="st0" points="1203.28 997.35 1203.28 917.52 1272.34 877.69 1341.6 917.52 1341.6 997.35 1272.54 1037.15 1203.28 997.35 1203.28 997.35"/>
  <polygon id="_x32_7" class="st0" points="1359.63 996.08 1359.63 916.48 1428.7 876.45 1497.73 916.48 1497.73 996.08 1428.7 1036.12 1359.63 996.08 1359.63 996.08"/>
</svg>