<?xml version="1.0" encoding="UTF-8"?>
<svg id="Vrstva_1" xmlns="http://www.w3.org/2000/svg" version="1.1" viewBox="0 0 467.1 426.34">
  <!-- Generator: Adobe Illustrator 29.5.1, SVG Export Plug-In . SVG Version: 2.1.0 Build 141)  -->
  <defs>
    <style>
      .st0 {
        fill: none;
        stroke: #000;
        stroke-miterlimit: 2.61;
        stroke-width: 2px;
      }
    </style>
  </defs>
  <polygon id="_x31_" class="st0" points="204.46 57.76 204.46 24.22 233.47 7.48 262.48 24.22 262.48 57.76 233.47 74.48 204.46 57.76 204.46 57.76"/>
  <polygon id="_x32_" class="st0" points="171.35 115.07 171.35 81.53 200.37 64.81 229.37 81.53 229.37 115.07 200.37 131.81 171.35 115.07 171.35 115.07"/>
  <polygon id="_x33_" class="st0" points="236.96 114.82 236.96 81.28 265.96 64.55 294.98 81.28 294.98 114.82 265.96 131.54 236.96 114.82 236.96 114.82"/>
  <polygon id="_x34_" class="st0" points="138.25 172.4 138.25 138.95 167.26 122.14 196.27 138.95 196.27 172.4 167.26 189.22 138.25 172.4 138.25 172.4"/>
  <polygon id="_x35_" class="st0" points="203.85 172.05 203.85 138.6 232.86 121.79 261.87 138.6 261.87 172.05 232.86 188.87 203.85 172.05 203.85 172.05"/>
  <polygon id="_x36_" class="st0" points="269.36 171.71 269.36 138.16 298.38 121.44 327.38 138.16 327.38 171.71 298.38 188.44 269.36 171.71 269.36 171.71"/>
  <polygon id="_x37_" class="st0" points="105.06 229.82 105.06 196.28 134.16 179.54 163.16 196.28 163.16 229.82 134.16 246.54 105.06 229.82 105.06 229.82"/>
  <polygon id="_x38_" class="st0" points="170.65 229.47 170.65 195.93 199.67 179.2 228.77 195.93 228.77 229.47 199.67 246.19 170.65 229.47 170.65 229.47"/>
  <polygon id="_x39_" class="st0" points="236.26 229.03 236.26 195.49 265.27 178.77 294.28 195.49 294.28 229.03 265.27 245.75 236.26 229.03 236.26 229.03"/>
  <polygon id="_x31_0" class="st0" points="301.77 228.77 301.77 195.23 330.78 178.5 359.8 195.23 359.88 228.77 330.78 245.5 301.77 228.77 301.77 228.77"/>
  <polygon id="_x31_1" class="st0" points="72.04 287.05 72.04 253.6 101.05 236.79 130.14 253.6 130.14 287.05 101.14 303.87 72.04 287.05 72.04 287.05"/>
  <polygon id="_x31_2" class="st0" points="137.64 286.7 137.64 253.16 166.65 236.44 195.66 253.26 195.75 286.7 166.65 303.52 137.64 286.7 137.64 286.7"/>
  <polygon id="_x31_3" class="st0" points="203.07 286.45 203.07 252.91 232.17 236.17 261.17 252.91 261.17 286.45 232.17 303.17 203.07 286.45 203.07 286.45"/>
  <polygon id="_x31_4" class="st0" points="268.67 286.1 268.67 252.64 297.68 235.83 326.78 252.64 326.78 286.1 297.68 302.92 268.67 286.1 268.67 286.1"/>
  <polygon id="_x31_5" class="st0" points="334.27 285.66 334.27 252.12 363.28 235.4 392.29 252.12 392.29 285.66 363.28 302.38 334.27 285.66 334.27 285.66"/>
  <polygon id="_x31_6" class="st0" points="38.93 344.38 38.93 310.84 68.03 294.11 97.03 310.84 97.03 344.38 68.03 361.1 38.93 344.38 38.93 344.38"/>
  <polygon id="_x31_7" class="st0" points="104.54 344.03 104.54 310.49 133.54 293.77 162.64 310.49 162.64 344.03 133.54 360.75 104.54 344.03 104.54 344.03"/>
  <polygon id="_x31_8" class="st0" points="170.05 343.68 170.05 310.14 199.06 293.42 228.15 310.14 228.15 343.68 199.15 360.41 170.05 343.68 170.05 343.68"/>
  <polygon id="_x31_9" class="st0" points="235.56 343.51 235.56 309.97 264.57 293.24 293.59 309.97 293.59 343.51 264.57 360.23 235.56 343.51 235.56 343.51"/>
  <polygon id="_x32_0" class="st0" points="301.16 342.89 301.16 309.45 330.18 292.63 359.27 309.45 359.27 342.89 330.18 359.71 301.16 342.89 301.16 342.89"/>
  <polygon id="_x32_1" class="st0" points="366.68 342.72 366.68 309.27 395.69 292.46 424.79 309.27 424.79 342.72 395.69 359.54 366.68 342.72 366.68 342.72"/>
  <polygon id="_x32_2" class="st0" points="5.82 401.7 5.82 368.26 34.84 351.44 63.84 368.26 63.84 401.7 34.84 418.52 5.82 401.7 5.82 401.7"/>
  <polygon id="_x32_21" class="st0" points="71.43 401.45 71.43 367.9 100.43 351.17 129.45 367.9 129.45 401.45 100.43 418.17 71.43 401.45 71.43 401.45"/>
  <polygon id="_x32_3" class="st0" points="136.94 401.01 136.94 367.47 166.04 350.73 195.04 367.47 195.04 401.01 166.04 417.73 136.94 401.01 136.94 401.01"/>
  <polygon id="_x32_4" class="st0" points="202.55 400.74 202.45 367.29 231.55 350.48 260.57 367.29 260.57 400.74 231.55 417.56 202.55 400.74 202.55 400.74"/>
  <polygon id="_x32_5" class="st0" points="268.06 400.31 268.06 366.77 297.07 350.04 326.16 366.77 326.16 400.31 297.16 417.04 268.06 400.31 268.06 400.31"/>
  <polygon id="_x32_6" class="st0" points="333.57 400.05 333.57 366.51 362.58 349.78 391.68 366.51 391.68 400.05 362.67 416.78 333.57 400.05 333.57 400.05"/>
  <polygon id="_x32_7" class="st0" points="399.26 399.52 399.26 366.08 428.27 349.26 457.28 366.08 457.28 399.52 428.27 416.34 399.26 399.52 399.26 399.52"/>
</svg>